{
  "asset": {
    "generator": "glTF-Transform v4.4.2",
    "version": "2.0"
  },
  "accessors": [
    {
      "type": "SCALAR",
      "componentType": 5123,
      "count": 6426,
      "bufferView": 0,
      "byteOffset": 0
    },
    {
      "type": "VEC3",
      "componentType": 5126,
      "count": 1292,
      "max": [
        0.7878156304359436,
        1.1083526611328125,
        0.18809300661087036
      ],
      "min": [
        -0.775051474571228,
        -0.0027944163884967566,
        -0.2536827027797699
      ],
      "bufferView": 1,
      "byteOffset": 0
    },
    {
      "type": "VEC3",
      "componentType": 5120,
      "count": 1292,
      "normalized": true,
      "bufferView": 1,
      "byteOffset": 12
    },
    {
      "type": "VEC2",
      "componentType": 5123,
      "count": 1292,
      "normalized": true,
      "bufferView": 1,
      "byteOffset": 16
    }
  ],
  "bufferViews": [
    {
      "buffer": 0,
      "byteOffset": 0,
      "byteLength": 12852,
      "target": 34963
    },
    {
      "buffer": 0,
      "byteOffset": 12852,
      "byteLength": 25840,
      "byteStride": 20,
      "target": 34962
    }
  ],
  "samplers": [
    {
      "magFilter": 9729,
      "minFilter": 9987,
      "wrapS": 10497,
      "wrapT": 10497
    }
  ],
  "textures": [
    {
      "source": 1,
      "sampler": 0
    },
    {
      "source": 0,
      "sampler": 0
    },
    {
      "source": 2,
      "sampler": 0
    }
  ],
  "images": [
    {
      "name": "concrete_road_barrier_02_nor_gl",
      "mimeType": "image/jpeg",
      "uri": "textures/concrete_road_barrier_02_nor_gl_1k.jpg"
    },
    {
      "name": "concrete_road_barrier_02_diff",
      "mimeType": "image/jpeg",
      "uri": "textures/concrete_road_barrier_02_diff_1k.jpg"
    },
    {
      "name": "concrete_road_barrier_02_rough",
      "mimeType": "image/jpeg",
      "uri": "textures/concrete_road_barrier_02_arm_1k.jpg"
    }
  ],
  "buffers": [
    {
      "uri": "concrete_road_barrier_02.bin",
      "byteLength": 38692
    }
  ],
  "materials": [
    {
      "name": "concrete_road_barrier_02",
      "doubleSided": true,
      "pbrMetallicRoughness": {
        "metallicFactor": 0,
        "baseColorTexture": {
          "index": 0
        },
        "metallicRoughnessTexture": {
          "index": 2
        }
      },
      "normalTexture": {
        "index": 1
      }
    }
  ],
  "meshes": [
    {
      "name": "Concrete_Road_Barrier_02_LOD00",
      "primitives": [
        {
          "attributes": {
            "POSITION": 1,
            "NORMAL": 2,
            "TEXCOORD_0": 3
          },
          "mode": 4,
          "material": 0,
          "indices": 0
        }
      ]
    }
  ],
  "nodes": [
    {
      "name": "concrete_road_barrier_02",
      "mesh": 0
    }
  ],
  "scenes": [
    {
      "name": "Scene",
      "nodes": [
        0
      ]
    }
  ],
  "scene": 0,
  "extensionsUsed": [
    "KHR_mesh_quantization"
  ],
  "extensionsRequired": [
    "KHR_mesh_quantization"
  ]
}