{
  "asset": {
    "generator": "glTF-Transform v4.4.2",
    "version": "2.0"
  },
  "accessors": [
    {
      "type": "SCALAR",
      "componentType": 5123,
      "count": 6330,
      "bufferView": 0,
      "byteOffset": 0
    },
    {
      "type": "SCALAR",
      "componentType": 5123,
      "count": 480,
      "bufferView": 0,
      "byteOffset": 12660
    },
    {
      "type": "SCALAR",
      "componentType": 5123,
      "count": 192,
      "bufferView": 0,
      "byteOffset": 13620
    },
    {
      "type": "VEC3",
      "componentType": 5126,
      "count": 1861,
      "max": [
        0.16117645800113678,
        0.1716388761997223,
        0.3860390782356262
      ],
      "min": [
        -0.16196827590465546,
        -0.1691807061433792,
        -0.03118397295475006
      ],
      "bufferView": 1,
      "byteOffset": 0
    },
    {
      "type": "VEC3",
      "componentType": 5120,
      "count": 1861,
      "normalized": true,
      "bufferView": 1,
      "byteOffset": 12
    },
    {
      "type": "VEC2",
      "componentType": 5123,
      "count": 1861,
      "normalized": true,
      "bufferView": 1,
      "byteOffset": 16
    },
    {
      "type": "VEC3",
      "componentType": 5126,
      "count": 138,
      "max": [
        0.020090434700250626,
        -0.08352166414260864,
        0.24218186736106873
      ],
      "min": [
        -0.018516305834054947,
        -0.2396848499774933,
        0.20263086259365082
      ],
      "bufferView": 2,
      "byteOffset": 0
    },
    {
      "type": "VEC3",
      "componentType": 5120,
      "count": 138,
      "normalized": true,
      "bufferView": 2,
      "byteOffset": 12
    },
    {
      "type": "VEC2",
      "componentType": 5123,
      "count": 138,
      "normalized": true,
      "bufferView": 2,
      "byteOffset": 16
    },
    {
      "type": "VEC3",
      "componentType": 5126,
      "count": 52,
      "max": [
        0.14889253675937653,
        -0.16647377610206604,
        0.3710310161113739
      ],
      "min": [
        -0.1473354548215866,
        -0.35933777689933777,
        0.07480300962924957
      ],
      "bufferView": 3,
      "byteOffset": 0
    },
    {
      "type": "VEC3",
      "componentType": 5120,
      "count": 52,
      "normalized": true,
      "bufferView": 3,
      "byteOffset": 12
    },
    {
      "type": "VEC2",
      "componentType": 5123,
      "count": 52,
      "normalized": true,
      "bufferView": 3,
      "byteOffset": 16
    }
  ],
  "bufferViews": [
    {
      "buffer": 0,
      "byteOffset": 0,
      "byteLength": 14004,
      "target": 34963
    },
    {
      "buffer": 0,
      "byteOffset": 14004,
      "byteLength": 37220,
      "byteStride": 20,
      "target": 34962
    },
    {
      "buffer": 0,
      "byteOffset": 51224,
      "byteLength": 2760,
      "byteStride": 20,
      "target": 34962
    },
    {
      "buffer": 0,
      "byteOffset": 53984,
      "byteLength": 1040,
      "byteStride": 20,
      "target": 34962
    }
  ],
  "samplers": [
    {
      "magFilter": 9729,
      "minFilter": 9987,
      "wrapS": 10497,
      "wrapT": 10497
    }
  ],
  "textures": [
    {
      "source": 1,
      "sampler": 0
    },
    {
      "source": 0,
      "sampler": 0
    },
    {
      "source": 2,
      "sampler": 0
    },
    {
      "source": 3,
      "sampler": 0
    }
  ],
  "images": [
    {
      "name": "security_light_nor_gl",
      "mimeType": "image/jpeg",
      "uri": "textures/security_light_nor_gl_1k.jpg"
    },
    {
      "name": "security_light_diff",
      "mimeType": "image/jpeg",
      "uri": "textures/security_light_diff_1k.jpg"
    },
    {
      "name": "security_light_metal-security_light_rough",
      "mimeType": "image/jpeg",
      "uri": "textures/security_light_arm_1k.jpg"
    },
    {
      "name": "security_light_diff-security_light_alpha",
      "mimeType": "image/jpeg",
      "uri": "textures/security_light_diff_1k.jpg"
    }
  ],
  "buffers": [
    {
      "uri": "security_light.bin",
      "byteLength": 55024
    }
  ],
  "materials": [
    {
      "name": "security_light",
      "doubleSided": true,
      "pbrMetallicRoughness": {
        "baseColorTexture": {
          "index": 0
        },
        "metallicRoughnessTexture": {
          "index": 2
        }
      },
      "normalTexture": {
        "index": 1
      }
    },
    {
      "name": "security_light_bulb",
      "doubleSided": true,
      "pbrMetallicRoughness": {
        "baseColorTexture": {
          "index": 0
        },
        "metallicRoughnessTexture": {
          "index": 2
        }
      },
      "normalTexture": {
        "index": 1
      }
    },
    {
      "name": "security_light_glass",
      "alphaMode": "BLEND",
      "doubleSided": true,
      "pbrMetallicRoughness": {
        "baseColorTexture": {
          "index": 3
        },
        "metallicRoughnessTexture": {
          "index": 2
        }
      },
      "normalTexture": {
        "index": 1
      }
    }
  ],
  "meshes": [
    {
      "name": "join.013",
      "primitives": [
        {
          "attributes": {
            "POSITION": 3,
            "NORMAL": 4,
            "TEXCOORD_0": 5
          },
          "mode": 4,
          "material": 0,
          "indices": 0
        },
        {
          "attributes": {
            "POSITION": 6,
            "NORMAL": 7,
            "TEXCOORD_0": 8
          },
          "mode": 4,
          "material": 1,
          "indices": 1
        }
      ]
    },
    {
      "name": "join.001",
      "primitives": [
        {
          "attributes": {
            "POSITION": 9,
            "NORMAL": 10,
            "TEXCOORD_0": 11
          },
          "mode": 4,
          "material": 2,
          "indices": 2
        }
      ]
    }
  ],
  "nodes": [
    {
      "name": "security_light",
      "mesh": 0
    },
    {
      "name": "security_light_glass",
      "mesh": 1
    }
  ],
  "scenes": [
    {
      "name": "Scene",
      "nodes": [
        0,
        1
      ]
    }
  ],
  "scene": 0,
  "extensionsUsed": [
    "KHR_mesh_quantization"
  ],
  "extensionsRequired": [
    "KHR_mesh_quantization"
  ]
}