{
  "asset": {
    "generator": "glTF-Transform v4.4.2",
    "version": "2.0"
  },
  "accessors": [
    {
      "type": "SCALAR",
      "componentType": 5123,
      "count": 7296,
      "bufferView": 0,
      "byteOffset": 0
    },
    {
      "type": "VEC3",
      "componentType": 5126,
      "count": 1516,
      "max": [
        0.7701511383056641,
        0.8223973512649536,
        0.3439931571483612
      ],
      "min": [
        -0.7737954258918762,
        -0.007966965436935425,
        -0.2947474718093872
      ],
      "bufferView": 1,
      "byteOffset": 0
    },
    {
      "type": "VEC3",
      "componentType": 5120,
      "count": 1516,
      "normalized": true,
      "bufferView": 1,
      "byteOffset": 12
    },
    {
      "type": "VEC2",
      "componentType": 5123,
      "count": 1516,
      "normalized": true,
      "bufferView": 1,
      "byteOffset": 16
    }
  ],
  "bufferViews": [
    {
      "buffer": 0,
      "byteOffset": 0,
      "byteLength": 14592,
      "target": 34963
    },
    {
      "buffer": 0,
      "byteOffset": 14592,
      "byteLength": 30320,
      "byteStride": 20,
      "target": 34962
    }
  ],
  "samplers": [
    {
      "magFilter": 9729,
      "minFilter": 9987,
      "wrapS": 10497,
      "wrapT": 10497
    }
  ],
  "textures": [
    {
      "source": 1,
      "sampler": 0
    },
    {
      "source": 0,
      "sampler": 0
    },
    {
      "source": 2,
      "sampler": 0
    }
  ],
  "images": [
    {
      "name": "concrete_road_barrier_nor_gl",
      "mimeType": "image/jpeg",
      "uri": "textures/concrete_road_barrier_nor_gl_1k.jpg"
    },
    {
      "name": "concrete_road_barrier_diff",
      "mimeType": "image/jpeg",
      "uri": "textures/concrete_road_barrier_diff_1k.jpg"
    },
    {
      "name": "concrete_road_barrier_rough",
      "mimeType": "image/jpeg",
      "uri": "textures/concrete_road_barrier_arm_1k.jpg"
    }
  ],
  "buffers": [
    {
      "uri": "concrete_road_barrier.bin",
      "byteLength": 44912
    }
  ],
  "materials": [
    {
      "name": "concrete_road_barrier",
      "doubleSided": true,
      "pbrMetallicRoughness": {
        "metallicFactor": 0,
        "baseColorTexture": {
          "index": 0
        },
        "metallicRoughnessTexture": {
          "index": 2
        }
      },
      "normalTexture": {
        "index": 1
      }
    }
  ],
  "meshes": [
    {
      "name": "RetopoFlow.006",
      "primitives": [
        {
          "attributes": {
            "POSITION": 1,
            "NORMAL": 2,
            "TEXCOORD_0": 3
          },
          "mode": 4,
          "material": 0,
          "indices": 0
        }
      ]
    }
  ],
  "nodes": [
    {
      "name": "concrete_road_barrier",
      "mesh": 0
    }
  ],
  "scenes": [
    {
      "name": "Scene",
      "nodes": [
        0
      ]
    }
  ],
  "scene": 0,
  "extensionsUsed": [
    "KHR_mesh_quantization"
  ],
  "extensionsRequired": [
    "KHR_mesh_quantization"
  ]
}